<svg height="200px" viewBox="1 -29 511.99898 511" width="200px" xmlns="http://www.w3.org/2000/svg"><path d="m371.6875 305.796875c1.5-.234375 3.070312-.34375 4.699219-.34375 18.640625 0 30.714843 15.101563 30.714843 33.742187 0 18.640626-17.375 44.105469-36.011718 44.105469-4.195313 0-7.679688-1.285156-10.566406-3.492187h-210.890626c-2.890624 2.207031-6.375 3.492187-10.566406 3.492187-18.640625 0-36.011718-25.464843-36.011718-44.105469 0-18.640624 12.074218-33.742187 30.710937-33.742187 1.632813 0 3.203125.109375 4.703125.34375" fill="#e8b094"/><path d="m395.140625 206.691406v104.949219l-193.695313-.792969-84.585937-.34375v-136.328125c0-22.183593 21.464844-38.019531 42.660156-31.484375 11.929688-37.925781 46.898438-61.832031 84.238281-61.832031 10.242188 0 20.644532 1.792969 30.804688 5.589844.449219.164062.894531.335937 1.339844.507812l51.144531 19.996094c41.066406 16.054687 68.09375 55.644531 68.09375 99.738281zm0 0" fill="#f7d360"/><path d="m201.050781 157.492188c0 35.453124 28.78125 74.878906 28.78125 74.878906l-28.386719 78.476562-84.585937-.34375v-136.328125c0-22.183593 21.464844-38.019531 42.660156-31.484375 11.929688-37.925781 46.898438-61.832031 84.238281-61.832031 10.242188 0 20.644532 1.792969 30.804688 5.589844-38.855469-13.917969-73.511719 35.992187-73.511719 71.042969zm0 0" fill="#e58e13"/><path d="m166.714844 188.523438c66.753906 72.691406 204.976562 75.730468 204.976562 75.730468v65.734375c0 32.203125-13.058594 61.347657-34.160156 82.449219-21.101562 21.109375-50.253906 34.15625-82.457031 34.15625-64.394531 0-116.605469-52.207031-116.605469-116.605469v-65.378906c0-29.082031 10.636719-55.664063 28.242188-76.085937zm0 0" fill="#ffdbcc"/><path d="m177.800781 329.988281v-65.378906c0-19.65625 4.863281-38.164063 13.445313-54.40625-8.863282-6.433594-17.136719-13.625-24.53125-21.679687-.003906 0-.003906 0-.003906 0-17.605469 20.421874-28.242188 47.003906-28.242188 76.085937v65.378906c0 64.398438 52.210938 116.605469 116.605469 116.605469 6.703125 0 13.273437-.574219 19.667969-1.660156-55.03125-9.347656-96.941407-57.25-96.941407-114.945313zm0 0" fill="#e8b094"/><path d="m213.546875 366.394531c0 22.9375 18.59375 41.53125 41.53125 41.53125s41.535156-18.59375 41.535156-41.53125zm0 0" fill="#fff"/><path d="m457.976562 271.015625c0 9.820313-7.960937 17.78125-17.78125 17.78125-9.820312 0-17.785156-7.960937-17.785156-17.78125 0-9.824219 7.964844-17.785156 17.785156-17.785156 9.820313 0 17.78125 7.960937 17.78125 17.785156zm0 0" fill="#f7d360"/><path d="m7.59375 102.804688 248.402344-94.707032 248.402344 94.707032-248.402344 94.707031zm0 0" fill="#3b454f"/><path d="m395.140625 112.699219v96.46875c-66.847656-17.171875-136.066406-21.761719-204.191406-13.777344-24.898438 2.90625-49.65625 7.507813-74.089844 13.777344v-96.46875c24.433594-6.269531 49.191406-10.871094 74.089844-13.785157 68.125-7.972656 137.34375-3.386718 204.191406 13.785157zm0 0" fill="#545d68"/><path d="m190.949219 98.914062v96.476563c-24.898438 2.90625-49.65625 7.507813-74.089844 13.777344v-96.46875c24.433594-6.269531 49.191406-10.871094 74.089844-13.785157zm0 0" fill="#3b454f"/><path d="m217.429688 316.59375v-8.441406c0-4.195313-3.402344-7.597656-7.597657-7.597656-4.199219 0-7.597656 3.402343-7.597656 7.597656v8.441406c0 4.195312 3.398437 7.597656 7.597656 7.597656 4.195313 0 7.597657-3.402344 7.597657-7.597656zm0 0"/><path d="m300.324219 300.554688c-4.195313 0-7.597657 3.402343-7.597657 7.597656v8.441406c0 4.195312 3.402344 7.597656 7.597657 7.597656 4.199219 0 7.597656-3.402344 7.597656-7.597656v-8.441406c0-4.195313-3.402344-7.597656-7.597656-7.597656zm0 0"/><path d="m255.078125 349.792969c6.34375 0 12.6875-2.414063 17.515625-7.242188 2.96875-2.964843 2.96875-7.777343 0-10.742187-2.96875-2.96875-7.777344-2.96875-10.742188 0-3.738281 3.730468-9.808593 3.734375-13.546874 0-2.964844-2.96875-7.773438-2.96875-10.742188 0-2.96875 2.964844-2.96875 7.777344 0 10.742187 4.828125 4.828125 11.171875 7.242188 17.515625 7.242188zm0 0"/><path d="m296.613281 358.796875h-83.066406c-4.199219 0-7.597656 3.402344-7.597656 7.597656 0 27.089844 22.039062 49.128907 49.128906 49.128907s49.132813-22.039063 49.132813-49.128907c0-4.195312-3.402344-7.597656-7.597657-7.597656zm-41.535156 41.535156c-16.101563 0-29.617187-11.273437-33.078125-26.339843h66.15625c-3.457031 15.066406-16.976562 26.339843-33.078125 26.339843zm0 0"/><path d="m218.066406 283.46875c1.484375 1.484375 3.429688 2.226562 5.375 2.226562 1.941406 0 3.886719-.742187 5.371094-2.226562 2.96875-2.96875 2.96875-7.777344 0-10.742188-10.464844-10.46875-27.496094-10.46875-37.964844 0-2.964844 2.964844-2.964844 7.777344 0 10.742188 2.96875 2.96875 7.777344 2.96875 10.746094 0 4.539062-4.542969 11.929688-4.542969 16.472656 0zm0 0"/><path d="m300.324219 264.863281c-7.167969 0-13.910157 2.789063-18.980469 7.863281-2.96875 2.964844-2.96875 7.777344 0 10.742188 2.96875 2.96875 7.777344 2.96875 10.746094 0 2.199218-2.199219 5.125-3.410156 8.234375-3.410156 3.113281 0 6.039062 1.210937 8.238281 3.410156 1.484375 1.484375 3.429688 2.226562 5.371094 2.226562 1.945312 0 3.890625-.742187 5.375-2.226562 2.96875-2.96875 2.96875-7.777344 0-10.742188-5.074219-5.074218-11.8125-7.863281-18.984375-7.863281zm0 0"/><path d="m507.109375 95.703125-66.542969-25.371094c-3.917968-1.492187-8.308594.472657-9.804687 4.394531-1.496094 3.917969.472656 8.308594 4.390625 9.804688l47.921875 18.269531-80.339844 30.628907v-20.734376c0-3.46875-2.347656-6.496093-5.707031-7.359374-92.261719-23.6875-189.796875-23.6875-282.058594 0-3.359375.863281-5.710938 3.890624-5.710938 7.359374v20.730469l-80.332031-30.625 227.070313-86.574219 149.90625 57.152344c3.914062 1.496094 8.308594-.46875 9.804687-4.390625 1.496094-3.921875-.472656-8.3125-4.390625-9.804687l-152.613281-58.1875c-1.746094-.664063-3.671875-.664063-5.414063 0l-248.398437 94.707031c-2.945313 1.125-4.890625 3.949219-4.890625 7.097656 0 3.152344 1.945312 5.976563 4.890625 7.101563l104.367187 39.789062.003907 108.097656c0 4.195313 3.398437 7.597657 7.597656 7.597657 4.195313 0 7.597656-3.402344 7.597656-7.597657v-42.683593c6.183594-1.515625 12.390625-2.933594 18.621094-4.234375-8.015625 16.671875-12.210937 34.964844-12.210937 53.738281v33.355469c-2.207032.15625-4.347657.484375-6.410157.980468v-10.765624c0-4.199219-3.402343-7.597657-7.597656-7.597657-4.199219 0-7.597656 3.398438-7.597656 7.597657v18.503906c-8.585938 7.382812-13.804688 18.882812-13.804688 32.511718 0 22.789063 20.53125 51.703126 43.609375 51.703126 2.527344 0 4.933594-.359376 7.222656-1.027344 21.175782 38.316406 61.996094 64.320312 108.78125 64.320312 33.191407 0 64.382813-12.921875 87.832032-36.382812 8.402344-8.402344 15.441406-17.796875 21.03125-27.917969 2.265625.65625 4.652344 1.003906 7.152344 1.003906 23.078124 0 43.613281-28.910156 43.613281-51.703125 0-12.621094-4.480469-23.417968-11.964844-30.8125v-158.691406l29.863281-11.382812v108.488281c-10.296875 3.234375-17.785156 12.867187-17.785156 24.214843 0 13.996094 11.386719 25.382813 25.382812 25.382813 13.992188 0 25.378907-11.386719 25.378907-25.382813 0-11.347656-7.488281-20.980468-17.78125-24.214843v-114.277344l59.316406-22.613281c2.945313-1.125 4.890625-3.949219 4.890625-7.101563 0-3.148437-1.945312-5.976562-4.890625-7.097656zm-127.824219 202.265625v-33.695312c0-.003907.003906-.011719.003906-.019532v-16.207031c0-4.195313-3.402343-7.597656-7.597656-7.597656-4.199218 0-7.597656 3.402343-7.597656 7.597656v8.21875c-26.121094-1.714844-112.453125-10.527344-170.1875-53.535156 64.597656-7.28125 130.328125-3.152344 193.636719 12.378906v84.332031c-2.621094-.773437-5.382813-1.273437-8.257813-1.472656zm-254.832031-179.347656c86.191406-21.140625 176.894531-21.140625 263.085937 0v80.839844c-43.140624-10.28125-87.335937-15.417969-131.542968-15.417969-44.203125 0-88.402344 5.136719-131.539063 15.417969zm14.613281 257.085937c-13.71875 0-28.414062-21.429687-28.414062-36.511719 0-16.410156 10-24.652343 20.214844-25.957031v15.953125c-2.332032-1.019531-4.929688-1.625-7.816407-1.625-4.199219 0-7.597656 3.402344-7.597656 7.597656 0 4.195313 3.398437 7.597657 7.597656 7.597657 5.222657 0 10.007813 11.039062 11.410157 16.949219.011718.046874.03125.089843.042968.136718 1.34375 5.425782 3.042969 10.71875 5.074219 15.839844-.167969.007812-.335937.019531-.511719.019531zm193.089844 31.363281c-20.578125 20.589844-47.957031 31.929688-77.082031 31.929688-60.109375 0-109.011719-48.902344-109.011719-109.007812v-65.378907c0-20.429687 5.644531-40.203125 16.335938-57.410156 3.59375-.617187 7.191406-1.1875 10.792968-1.734375 36.917969 32.59375 88.039063 48.875 124.855469 56.816406 29.5 6.359375 54.222656 8.515625 66.046875 9.226563v58.480469c0 29.109374-11.34375 56.480468-31.9375 77.078124zm38.933594-31.363281c-.15625 0-.304688-.011719-.457032-.015625 2.203126-5.566406 3.996094-11.296875 5.367188-17.152344 1.703125-6.085937 6.210938-15.777343 11.105469-15.777343 4.195312 0 7.597656-3.402344 7.597656-7.597657 0-4.195312-3.402344-7.597656-7.597656-7.597656-2.890625 0-5.484375.605469-7.820313 1.625v-15.953125c10.21875 1.304688 20.21875 9.546875 20.21875 25.957031 0 15.082032-14.695312 36.511719-28.414062 36.511719zm69.105468-94.507812c-5.617187 0-10.1875-4.570313-10.1875-10.183594 0-5.617187 4.570313-10.1875 10.1875-10.1875 5.617188 0 10.183594 4.570313 10.183594 10.1875 0 5.613281-4.566406 10.183594-10.183594 10.183594zm0 0"/></svg>